<svg id="Capa_1" data-name="Capa 1" xmlns="http://www.w3.org/2000/svg" viewBox="0 0 655.89 564.61"><defs><style>.cls-1,.cls-2,.cls-6,.cls-7,.cls-8{fill:#211915;}.cls-1,.cls-8{stroke:#fff;}.cls-1,.cls-10,.cls-11,.cls-2,.cls-6,.cls-8,.cls-9{stroke-miterlimit:10;}.cls-10,.cls-11,.cls-2,.cls-6,.cls-9{stroke:#211915;}.cls-3{fill:#f7ec45;}.cls-4{fill:#db9600;}.cls-5{fill:#e6b54a;}.cls-10,.cls-11,.cls-6{stroke-width:4px;}.cls-8{stroke-width:3px;}.cls-10,.cls-12,.cls-9{fill:#fff;}.cls-11{fill:none;}</style></defs><polygon class="cls-1" points="78.94 429.06 579.37 429.06 579.37 477.05 76.31 477.05 78.94 429.06"/><polygon class="cls-2" points="80 190.19 126.93 421.68 85.27 421.68 34.65 185.97 76.31 185.97 80 190.19"/><polygon class="cls-3" points="67.52 54.84 130.69 57.65 146.26 78.75 154.7 45 190.56 61.87 320.63 70.31 334.43 49.22 352.62 87.18 374.77 74.53 518.2 99.14 558.98 65.39 503.43 57.65 496.84 26.01 452.8 0 386.72 11.25 376.17 28.83 345.94 5.63 197.59 0 195.48 33.05 88.61 41.48 67.52 54.84"/><polygon class="cls-2" points="530.33 421.68 573.57 421.68 624.19 185.97 579.37 185.97 530.33 421.68"/><polygon class="cls-4" points="133.61 99.84 146.26 45 180.01 97.03 345.24 114.6 327.84 70.31 334.43 49.22 296.02 51.33 304.46 34.45 393.05 56.25 374.77 74.53 379.69 94.92 511.17 114.6 527.34 136.4 523.12 104.06 558.98 65.39 592.73 136.4 535.49 157.49 112.52 152.75 133.61 99.84"/><polygon class="cls-4" points="181.42 26.72 197.59 0 221.49 34.45 224.31 45 208.14 57.65 215.48 38.67 181.42 26.72"/><polygon class="cls-4" points="380.39 26.01 386.72 11.25 394.45 26.01 380.39 26.01"/><polygon class="cls-4" points="405 52.73 417.66 21.8 429.52 54.84 405 52.73"/><polygon class="cls-5" points="46.42 136.4 64.7 59.76 130.69 62.58 151.19 103.35 162.75 86.48 146.26 45 188.45 71.01 312.9 79.45 339.61 114.6 378.99 114.6 364.93 90.7 374.77 77.34 512.57 109.68 518.2 123.74 513.28 136.4 46.42 136.4"/><rect class="cls-2" x="27.79" y="123.74" width="600.09" height="58"/><circle class="cls-2" cx="169.64" cy="499.19" r="62.22"/><polygon class="cls-6" points="18.3 485.13 96.34 485.13 96.34 480.74 568.12 480.74 568.12 485.13 627.88 485.13 627.88 461.54 653.89 453.05 653.89 530.13 631.4 520.99 627.88 500.89 558.27 499.19 99.86 502.59 98.45 497.74 18.3 497.74 14.96 484.43 18.3 485.13"/><circle class="cls-7" cx="169.64" cy="499.19" r="18.46"/><circle class="cls-8" cx="169.64" cy="499.19" r="62.22"/><circle class="cls-9" cx="169.64" cy="499.19" r="46.14"/><polygon class="cls-7" points="130.69 470.63 202 538.94 213.38 528.15 139.08 459.84 130.69 470.63"/><polygon class="cls-7" points="162.75 449.66 162.75 548.53 174.74 548.53 174.74 446.96 162.75 449.66"/><polygon class="cls-7" points="199.9 459.84 123.8 532.35 136.38 544.33 215.48 466.43 205.29 454.45 199.9 459.84"/><polygon class="cls-7" points="119.91 493.4 222.37 493.4 222.37 508.38 116.91 508.38 119.91 493.4"/><circle class="cls-8" cx="491.74" cy="500.89" r="62.22"/><circle class="cls-9" cx="491.74" cy="500.89" r="46.14"/><polygon class="cls-7" points="452.8 472.32 524.1 540.64 535.49 529.85 461.18 461.54 452.8 472.32"/><polygon class="cls-7" points="484.85 451.35 484.85 550.22 496.84 550.22 496.84 448.66 484.85 451.35"/><polygon class="cls-7" points="522.01 461.54 445.9 534.04 458.49 546.03 537.59 468.13 527.4 456.15 522.01 461.54"/><polygon class="cls-7" points="442.01 495.1 544.48 495.1 544.48 510.08 439.01 510.08 442.01 495.1"/><line class="cls-10" x1="88.61" y1="215.85" x2="561.79" y2="215.85"/><line class="cls-11" x1="107.42" y1="291.08" x2="550.54" y2="291.78"/><line class="cls-11" x1="123.8" y1="367.01" x2="535.49" y2="367.01"/><polygon class="cls-6" points="2.13 453.05 27.79 461.54 27.79 517.65 5.65 530.13 2.13 453.05"/><circle class="cls-12" cx="98.29" cy="387.62" r="7.22"/><circle class="cls-12" cx="83.85" cy="325.75" r="7.22"/><circle class="cls-12" cx="69.09" cy="246.3" r="7.22"/><circle class="cls-12" cx="61.86" cy="152.75" r="7.22"/><circle class="cls-12" cx="558.98" cy="387.62" r="7.22"/><circle class="cls-12" cx="570.04" cy="325.75" r="7.22"/><circle class="cls-12" cx="586.59" cy="246.3" r="7.22"/><circle class="cls-12" cx="601.03" cy="152.75" r="7.22"/><circle class="cls-12" cx="327.84" cy="152.75" r="7.22"/><circle class="cls-12" cx="194.85" cy="152.75" r="7.22"/><circle class="cls-12" cx="464.43" cy="152.75" r="7.22"/></svg>