<svg id="Capa_1" data-name="Capa 1" xmlns="http://www.w3.org/2000/svg" viewBox="0 0 660.1 555.83"><defs><style>.cls-1,.cls-2{fill:#211915;}.cls-1{stroke:#211915;stroke-miterlimit:10;}</style></defs><path class="cls-1" d="M6.7,201.05s41,18,88,24l3,7.76,5.88-7.53,4.71,9.65,7.53-8.94,4,8.94,4.47-7.76s61.41,3.29,67.77,1.64c0,0,1.41,37.65,4.47,44.47,0,0-1.65-52,.94-56.94l33.17.47s0,62.12,2.59,73.41c0,0,1.41-72.47,1.65-74.11s9.41-9.41,9.41-9.41l21.41-.95a56.24,56.24,0,0,0,11.77,7.8l-4.94-10.38,3.76-8h-40l11.06-8.24H421.47l-12.71,9.88-128.94.71v6.12l273.18.7s57.88-.7,77.88-5.41c0,0-213.43-.35-216.94-1.88l14.35-10.12H626.41l12,12.24s-4,10.64-3.77,14.38-109.41,8.91-205.88,89.85c0,0-16,63.77,21.65,92.71,0,0,11.29,7.06,9.41,14.82s-31.29-12-31.29-12-25.65-14.12-42.36-13.18c0,0,33.89,8.71,71.06,36.47l37.18-1.17s-52.24-21.65-62.83-60.94c0,0,20.71,12,34.83,14.59,0,0-.94,18.58,30.12,45.64l-.24,20.47s-3.06,16.47-6.82,16.24H457.94s-63.53-17.88-108.47-14.12-65.41,6.12-93.41,14.12H227.11s-6.82-1.88-8.7-4.71-3.06-29.64-3.06-29.64,22.12-17.18,30.35-43.53c0,0,24-6.12,32.47-14.83s1.89,5.88,1.89,5.88S257,408.34,219.11,422l-.7,1.41,36.7.94s22.36-20.47,35.77-26.59c0,0-16.71,3.77-35.3,19.53l-11.52-.47s2.82-7.06,11.76-14.59,23.76-16.94,30.82-45.88c0,0,5.89-40.7-19.53-48.47,0,0-32-.94-39.29-13.88l-32-3.53-.47-4s-89.18-13.18-128.24-34.35c0,0-22.58-12.94-64.94-44.47,0,0-3.76-7.3,0-10.36L229.47,202l.47,10.35-36-.23-1.18,6.11-61.41-1.41S77.11,218.93,6.7,201.05Z"/><path class="cls-2" d="M103.71,128.43c-1.75,8.92-7,28.71-8.15,31.62H3.8V157c17.07-2.53,18-4.08,18-20.76V57.81c0-17.26-1.36-18.23-16.1-20.76V34H61.8v3.1c-14.55,2.72-15.9,4.08-15.9,20.76v83c0,12.23,3.29,13.39,13,13.39H70.53c10.48,0,13.2-1.55,18.24-6.21,4.07-3.88,8.54-12.41,12-20.37Z"/><path class="cls-2" d="M153.48,160.05V157.7c10.14-2.21,10.29-3.82,7.65-11.47-1.77-4.85-4.27-12.49-7.36-20.73h-26.9c-2.5,6.77-4.85,13.38-6.61,18.67-3.38,9.85-2.21,11.18,10.58,13.53v2.35H98.94V157.7c9.71-1.62,11.62-3.53,16.76-16.61l30.43-77.62,4-.59c9.26,26,18.82,51.6,28.52,77.32,5.14,14.12,6.61,15.59,15.58,17.5v2.35ZM140.69,87.72c-4.56,12.2-7.94,22.2-12.05,33.08H152Z"/><path class="cls-2" d="M309.12,63.05a55.78,55.78,0,0,0-6-14.94c-3.49-6-8.53-8.34-21.14-8.34H268.38c-5.82,0-7.18,1-7.18,6.79V92.73h21.34c14.16,0,15.33-3.1,18.63-16.68h2.91v39.19H301c-3.68-13.2-4.27-16.69-18.43-16.69H261.2V132.7c0,20.17,1.16,21.34,17.65,24.25v3.1H221.62V157c14.17-2.53,15.52-4.08,15.52-24.25V60c0-19.21-1.35-20.18-15.52-22.9V34h60.92c19,0,25.8-.19,27.94-.39.19,3.49.77,18.82,1.74,29.1Z"/><path class="cls-2" d="M373.46,62.44c26,0,47.77,20.43,47.77,49,0,30.72-21.61,50.86-48.21,50.86-28.52,0-48.81-22.05-48.81-49.24C324.21,87.87,342.44,62.44,373.46,62.44Zm-2.94,3.67c-14.41,0-25.29,14.41-25.29,43.52,0,27.49,11.18,49,30.29,49,14.7,0,24.69-14.85,24.69-43.37C400.21,84.49,388.6,66.11,370.52,66.11Z"/><path class="cls-2" d="M522.52,161.08H515.9c-17.64-.74-22.34-4.12-27.34-11.91s-9.7-16.17-14.41-25.28c-3.23-6.18-5.44-7.94-10.44-7.94h-2.2v25.87c0,12.35.88,13.53,11.76,15.88v2.35H431.81V157.7c10.88-2.35,11.76-3.24,11.76-15.88V82.58c0-12.35-.88-14-11.76-15.73V64.5h39.55c12.05,0,19.4,1.32,25.43,5.58,5.59,3.83,8.82,9.85,8.82,17.35,0,14.85-11.32,21.46-18.67,24.55,2.21,4,10,17.49,14.11,24.11,5.59,9,7.5,11.91,10.73,15.73,3.38,4,5.44,5.29,11.18,7.2Zm-58.07-48.51c7.05,0,12.2-.59,15.73-4,4.11-3.82,5.88-9,5.88-17.5,0-17-8.53-23.22-16.91-23.22-3.08,0-5.14.29-6,1s-1.62,1.76-1.62,4.7v39Z"/><path class="cls-2" d="M565.44,66.85c-9.85,1.76-11,2.65-11,15.73V133c0,18.08-1,30.28-10.88,39.4-6.76,6.17-14.55,9-21,10.43l-.73-2.2c7.49-3.68,12.79-9,13.67-22.49.59-8.82.73-13.38.73-24.7V82.58c0-13.23-1.61-14.11-12.2-15.73V64.5h41.46Z"/><path class="cls-2" d="M619.38,160.05V157.7c10.14-2.21,10.29-3.82,7.65-11.47-1.77-4.85-4.27-12.49-7.35-20.73H592.77c-2.5,6.77-4.85,13.38-6.61,18.67-3.38,9.85-2.21,11.18,10.58,13.53v2.35h-31.9V157.7c9.71-1.62,11.62-3.53,16.76-16.61L612,63.47l4-.59c9.26,26,18.82,51.6,28.52,77.32,5.14,14.12,6.61,15.59,15.58,17.5v2.35ZM606.59,87.72c-4.55,12.2-7.94,22.2-12.05,33.08h23.37Z"/><path class="cls-2" d="M173.05,526.79v-2.24c6.56-.64,6.8-1.12,6.72-9.68l.08-32.64c-6.56,14.64-17.12,37.52-19.92,44.56h-2.08c-2.72-7.28-11.76-29.28-17.84-43.76-1.36,28-1.44,34.32-1.44,35.84.08,4.48,2.08,5.12,7.52,5.68v2.24h-19v-2.24c4.64-.48,6.56-1.44,7.2-5.76.48-3.52.56-6.4,2.64-35.6.32-4.16-.48-5.52-7.52-6.16v-2.24h13.92l17.68,40.56,19-40.56h14V477c-6.88.8-7.76,1.52-7.6,7.12l.32,30.72c.32,8.56.56,9,7.6,9.68v2.24Z"/><path class="cls-2" d="M206,526.79v-2.24c5-.48,5.6-.88,5.6-6.32V501.75c0-5-.24-5.28-5-6.08v-1.92a52.39,52.39,0,0,0,11.36-3.2v27.68c0,5.44.56,5.84,5.76,6.32v2.24Zm8.32-44.08a4.38,4.38,0,0,1-4.24-4.24,4.32,4.32,0,0,1,4.32-4.4,4.18,4.18,0,0,1,4.08,4.4A4.25,4.25,0,0,1,214.33,482.71Z"/><path class="cls-2" d="M258.73,526.79v-2.24c4.64-.48,5.12-1,5.12-6.48v-13.2c0-5.6-2-9.36-7.28-9.36-3.28,0-6.4,1.92-8.88,4.16v18.72c0,5.52.48,5.68,5.2,6.16v2.24H235.61v-2.24c5.28-.56,5.76-.88,5.76-6.16V501.91c0-5.2-.56-5.44-4.88-6.16v-2.08a45.4,45.4,0,0,0,11.2-3.2v6.32c1.6-1.12,3.36-2.32,5.44-3.68a12.27,12.27,0,0,1,6.64-2.4c6.4,0,10.4,4.72,10.4,12.48v15.2c0,5.44.48,5.68,5.12,6.16v2.24Z"/><path class="cls-2" d="M287.93,526.79v-2.24c5-.48,5.6-.88,5.6-6.32V501.75c0-5-.24-5.28-5-6.08v-1.92a52.39,52.39,0,0,0,11.36-3.2v27.68c0,5.44.56,5.84,5.76,6.32v2.24Zm8.32-44.08a4.38,4.38,0,0,1-4.24-4.24,4.32,4.32,0,0,1,4.32-4.4,4.18,4.18,0,0,1,4.08,4.4A4.25,4.25,0,0,1,296.25,482.71Z"/><path class="cls-2" d="M343,527.75a5.86,5.86,0,0,1-3.76-1.52,7.51,7.51,0,0,1-1.92-3.6c-3.2,2.16-7.12,5.12-9.6,5.12a9.81,9.81,0,0,1-9.76-9.84c0-3.92,2.16-6.48,6.56-8,4.88-1.68,10.88-3.76,12.64-5.2v-1.6c0-5.68-2.88-9-7-9a4.64,4.64,0,0,0-3.76,1.84,17.16,17.16,0,0,0-2.16,5.2,2.23,2.23,0,0,1-2.32,1.84,3.85,3.85,0,0,1-3.52-3.52c0-1.12,1-2.08,2.64-3.2,2.32-1.68,7-4.64,11.52-5.6a11.06,11.06,0,0,1,6.72,2.16c2.8,2.4,4.08,5.12,4.08,9.28v15.44c0,3.68,1.36,4.8,2.8,4.8a6.36,6.36,0,0,0,2.88-.88l.8,2.24Zm-5.84-20.24c-1.76.88-5.6,2.56-7.44,3.36-3,1.36-4.88,2.88-4.88,5.84a5.82,5.82,0,0,0,5.76,6.16,10.63,10.63,0,0,0,6.56-2.88Z"/><path class="cls-2" d="M376,526.71a8.07,8.07,0,0,1-3.44,1c-5.12,0-7.84-3.12-7.84-9.52V495h-5.52l-.32-1,2.16-2.32h3.68V485c1.52-1.6,3.84-3.68,5.36-5.28l1.2.16c-.16,3.36-.24,8-.24,11.84h9.12a2.5,2.5,0,0,1-.48,3.28h-8.64v20.48c0,6.48,2.56,7.68,4.64,7.68a11.44,11.44,0,0,0,4.88-1.28l.72,2.08Z"/><path class="cls-2" d="M430.25,525a92.2,92.2,0,0,0-12.24,2.8v-6.16c-4.32,3.6-7.84,6.16-12.24,6.16-5.36,0-10-3.28-10-12V500.23c0-4.32-.64-4.8-2.64-5.2l-2.24-.4v-2.08a108.64,108.64,0,0,0,11.44-1.44c-.24,2.56-.24,6.4-.24,11.68v10.88c0,7,3.68,9,7.28,9a12.64,12.64,0,0,0,8.64-3.84V500.23c0-4.32-1-4.88-3.68-5.28l-2.56-.32v-2.08a113.31,113.31,0,0,0,12.56-1.44v26.8c0,4,.64,4.56,3.68,4.72l2.24.08Z"/><path class="cls-2" d="M460.65,526.79h-18.4v-2.24c5-.48,5.52-.88,5.52-6.08V501.83c0-5.28-.32-5.52-5-6.08v-2a44.28,44.28,0,0,0,11.28-3.28v8.8c2.8-4.16,6.16-8.56,10.16-8.56,3,0,4.64,1.84,4.64,3.84a5.37,5.37,0,0,1-2.72,4.4,1.58,1.58,0,0,1-2.08-.16c-1.2-1.2-2.16-2-3.6-2-1.68,0-4.64,2.48-6.4,6.56v15c0,5.28.4,5.68,6.56,6.16Z"/><path class="cls-2" d="M505.69,527.75a5.86,5.86,0,0,1-3.76-1.52,7.51,7.51,0,0,1-1.92-3.6c-3.2,2.16-7.12,5.12-9.6,5.12a9.81,9.81,0,0,1-9.76-9.84c0-3.92,2.16-6.48,6.56-8,4.88-1.68,10.88-3.76,12.64-5.2v-1.6c0-5.68-2.88-9-7-9a4.64,4.64,0,0,0-3.76,1.84,17.16,17.16,0,0,0-2.16,5.2,2.23,2.23,0,0,1-2.32,1.84,3.85,3.85,0,0,1-3.52-3.52c0-1.12,1-2.08,2.64-3.2,2.32-1.68,7-4.64,11.52-5.6a11.06,11.06,0,0,1,6.72,2.16c2.8,2.4,4.08,5.12,4.08,9.28v15.44c0,3.68,1.36,4.8,2.8,4.8a6.36,6.36,0,0,0,2.88-.88l.8,2.24Zm-5.84-20.24c-1.76.88-5.6,2.56-7.44,3.36-3,1.36-4.88,2.88-4.88,5.84a5.82,5.82,0,0,0,5.76,6.16,10.63,10.63,0,0,0,6.56-2.88Z"/><path class="cls-2" d="M544.09,501.19c-1.44-4.64-3.52-7.84-8.4-7.84a4.85,4.85,0,0,0-5,5.2c0,3.44,2.32,5,6.8,7.12,6.88,3.28,10.32,5.68,10.32,11,0,7.36-6.72,11.12-13,11.12a20.92,20.92,0,0,1-9.52-2.24c-.4-2.32-1.12-6.72-1.44-9.36l2.32-.4c1.44,5.12,4.24,9.28,9.84,9.28a5.34,5.34,0,0,0,5.6-5.44c0-3.6-2.16-5.44-6.4-7.52-5.6-2.72-10.16-5.28-10.16-11s5-10.32,12.48-10.32a41.17,41.17,0,0,1,7.68,1c.24,1.92.8,7,1.2,8.88Z"/></svg>